<svg width="180" height="38" viewBox="0 0 180 38" fill="none" xmlns="http://www.w3.org/2000/svg">
  <!-- Modern shopping cart icon with gradient -->
  <g>
    <defs>
      <linearGradient id="brandGradient" x1="0%" y1="0%" x2="100%" y2="100%">
        <stop offset="0%" style="stop-color:#EA580C;stop-opacity:1" />
        <stop offset="100%" style="stop-color:#C2410C;stop-opacity:1" />
      </linearGradient>
    </defs>
    
    <!-- Cart container with rounded corners -->
    <rect x="4" y="12" width="16" height="14" rx="2" fill="none" stroke="url(#brandGradient)" stroke-width="1.8"/>
    
    <!-- Cart handle -->
    <path d="M8 8a2.5 2.5 0 0 1 5 0v4M13 12h2" stroke="url(#brandGradient)" stroke-width="1.8" stroke-linecap="round"/>
    
    <!-- Shopping items inside cart -->
    <circle cx="9" cy="18" r="1.2" fill="#EA580C"/>
    <circle cx="15" cy="18" r="1.2" fill="#EA580C"/>
    <rect x="7" y="15" width="10" height="1" rx="0.5" fill="#EA580C" opacity="0.6"/>
    
    <!-- Modern accent lines -->
    <path d="M20 10l2 2M20 14l2-2" stroke="#EA580C" stroke-width="1.5" stroke-linecap="round" opacity="0.7"/>
  </g>
  
  <!-- Modern Hanzala.co typography -->
  <g transform="translate(32, 0)" fill="#1F2937">
    <!-- H -->
    <path d="M2 6V30H6V20H14V30H18V6H14V16H6V6H2Z" font-weight="600"/>
    
    <!-- a -->
    <path d="M28 18C28 15.8 29.8 14 32 14C34.2 14 36 15.8 36 18V24C36 26.2 34.2 28 32 28H30V32H26V18H28ZM32 24V18H28V24H32Z"/>
    
    <!-- n -->
    <path d="M42 14V32H46V22C46 20.3 47.3 19 49 19C50.7 19 52 20.3 52 22V32H56V20C56 16.7 53.3 14 50 14C47.8 14 45.9 15.2 45 17V14H42Z"/>
    
    <!-- z -->
    <path d="M62 14V18H72L62 24V28H76V24H66L76 18V14H62Z"/>
    
    <!-- a -->
    <path d="M86 18C86 15.8 87.8 14 90 14C92.2 14 94 15.8 94 18V24C94 26.2 92.2 28 90 28H88V32H84V18H86ZM90 24V18H86V24H90Z"/>
    
    <!-- l -->
    <path d="M100 6V32H104V6H100Z"/>
    
    <!-- a -->
    <path d="M114 18C114 15.8 115.8 14 118 14C120.2 14 122 15.8 122 18V24C122 26.2 120.2 28 118 28H116V32H112V18H114ZM118 24V18H114V24H118Z"/>
    
    <!-- Modern .co with brand accent -->
    <g transform="translate(128, 16)" fill="#EA580C">
      <!-- Dot -->
      <circle cx="3" cy="8" r="2" fill="#EA580C"/>
      
      <!-- c -->
      <path d="M10 4C10 1.8 11.8 0 14 0C16.2 0 18 1.8 18 4V8C18 10.2 16.2 12 14 12C11.8 12 10 10.2 10 8V4Z" fill="none" stroke="#EA580C" stroke-width="2" stroke-linecap="round"/>
      
      <!-- o -->
      <circle cx="26" cy="6" r="6" fill="none" stroke="#EA580C" stroke-width="2"/>
    </g>
  </g>
  
  <!-- Subtle brand accent -->
  <circle cx="170" cy="8" r="2" fill="#EA580C" opacity="0.3"/>
  <circle cx="174" cy="12" r="1.5" fill="#EA580C" opacity="0.5"/>
  <circle cx="168" cy="14" r="1" fill="#EA580C" opacity="0.4"/>
</svg>
